<?xml version="1.0" ?><svg id="OBJECT" viewBox="0 0 512 512" xmlns="http://www.w3.org/2000/svg"><defs><style>.cls-1{fill:#bddbff;}.cls-2{fill:#3d9ae2;}.cls-3{fill:#fff;}</style></defs><title/><rect class="cls-1" height="220" rx="20" ry="20" width="364.47" x="73.77" y="284.5"/><path class="cls-2" d="M418.23,512H93.77a27.53,27.53,0,0,1-27.5-27.5v-180A27.53,27.53,0,0,1,93.77,277H418.23a27.53,27.53,0,0,1,27.5,27.5v180A27.53,27.53,0,0,1,418.23,512ZM93.77,292a12.51,12.51,0,0,0-12.5,12.5v180A12.51,12.51,0,0,0,93.77,497H418.23a12.51,12.51,0,0,0,12.5-12.5v-180a12.51,12.51,0,0,0-12.5-12.5Z"/><rect class="cls-3" height="260" rx="20" ry="20" width="430.73" x="40.63" y="146"/><path class="cls-2" d="M451.37,413.5H60.63A27.54,27.54,0,0,1,33.13,386V166a27.54,27.54,0,0,1,27.5-27.5H451.37a27.54,27.54,0,0,1,27.5,27.5V386A27.54,27.54,0,0,1,451.37,413.5ZM60.63,153.5A12.52,12.52,0,0,0,48.13,166V386a12.52,12.52,0,0,0,12.5,12.5H451.37a12.52,12.52,0,0,0,12.5-12.5V166a12.52,12.52,0,0,0-12.5-12.5Z"/><rect class="cls-1" height="300" rx="40" ry="40" width="497" x="7.5" y="7.5"/><path class="cls-2" d="M464.5,315H47.5A47.56,47.56,0,0,1,0,267.5V47.5A47.56,47.56,0,0,1,47.5,0h417A47.56,47.56,0,0,1,512,47.5v220A47.56,47.56,0,0,1,464.5,315ZM47.5,15A32.54,32.54,0,0,0,15,47.5v220A32.54,32.54,0,0,0,47.5,300h417A32.54,32.54,0,0,0,497,267.5V47.5A32.54,32.54,0,0,0,464.5,15Z"/><circle class="cls-3" cx="260" cy="157.5" r="100"/><path class="cls-2" d="M260,265A107.5,107.5,0,1,1,367.5,157.5,107.62,107.62,0,0,1,260,265Zm0-200a92.5,92.5,0,1,0,92.5,92.5A92.61,92.61,0,0,0,260,65Z"/><path class="cls-2" d="M293.17,166.28c-4.06-4.5-11-8.61-21.32-12.56l-4.65-1.78V127.08a83.12,83.12,0,0,1,21.64,5.44,2,2,0,0,0,2.59-1.11l5.7-14.3a2,2,0,0,0-1.09-2.59,88.09,88.09,0,0,0-28.84-6.47v-11a2,2,0,0,0-2-2H254.8a2,2,0,0,0-2,2v11.35c-9.11,1.18-16.52,4.1-22,8.67a24,24,0,0,0-9.13,19.28c0,7.18,2.15,13.31,6.39,18.22s10.69,8.93,19.53,12.33l5.25,1.93v25.76a72.45,72.45,0,0,1-13.61-2.18,77.21,77.21,0,0,1-15.3-5.36,2,2,0,0,0-2.88,1.8v16.48a2,2,0,0,0,1.17,1.82c8.07,3.66,18.37,5.7,30.62,6.07v14.53a2,2,0,0,0,2,2h10.4a2,2,0,0,0,2-2V212.59c9.93-1.33,17.74-4.47,23.23-9.34a25.86,25.86,0,0,0,8.95-20.16A24.33,24.33,0,0,0,293.17,166.28Zm-16.22,18c0,1.83,0,7.17-9.75,9.38V174.07a25.58,25.58,0,0,1,7.22,4.19A7.76,7.76,0,0,1,277,184.26ZM252.8,127.61v18.86a21.56,21.56,0,0,1-6.57-4.2,8.43,8.43,0,0,1-2.24-6.06,7.22,7.22,0,0,1,2.61-5.69A14.45,14.45,0,0,1,252.8,127.61Z"/><path class="cls-3" d="M47.5,7.5h50a0,0,0,0,1,0,0v0a90,90,0,0,1-90,90h0a0,0,0,0,1,0,0v-50A40,40,0,0,1,47.5,7.5Z"/><path class="cls-2" d="M7.5,105A7.5,7.5,0,0,1,0,97.5v-50A47.56,47.56,0,0,1,47.5,0h50A7.5,7.5,0,0,1,105,7.5,97.61,97.61,0,0,1,7.5,105Zm40-90A32.54,32.54,0,0,0,15,47.5V89.66A82.62,82.62,0,0,0,89.66,15Z"/><path class="cls-3" d="M414.5,7.5h0a90,90,0,0,1,90,90v0a0,0,0,0,1,0,0h-50a40,40,0,0,1-40-40V7.5A0,0,0,0,1,414.5,7.5Z" transform="translate(919 105) rotate(180)"/><path class="cls-2" d="M504.5,105A97.61,97.61,0,0,1,407,7.5,7.5,7.5,0,0,1,414.5,0h50A47.56,47.56,0,0,1,512,47.5v50A7.5,7.5,0,0,1,504.5,105ZM422.34,15A82.62,82.62,0,0,0,497,89.66V47.5A32.54,32.54,0,0,0,464.5,15Z"/><path class="cls-3" d="M7.5,217.5h0a90,90,0,0,1,90,90v0a0,0,0,0,1,0,0h-50a40,40,0,0,1-40-40v-50A0,0,0,0,1,7.5,217.5Z"/><path class="cls-2" d="M97.5,315h-50A47.56,47.56,0,0,1,0,267.5v-50A7.5,7.5,0,0,1,7.5,210,97.61,97.61,0,0,1,105,307.5,7.5,7.5,0,0,1,97.5,315ZM15,225.34V267.5A32.54,32.54,0,0,0,47.5,300H89.66A82.62,82.62,0,0,0,15,225.34Z"/><path class="cls-3" d="M454.5,217.5h50a0,0,0,0,1,0,0v0a90,90,0,0,1-90,90h0a0,0,0,0,1,0,0v-50A40,40,0,0,1,454.5,217.5Z" transform="translate(919 525) rotate(180)"/><path class="cls-2" d="M464.5,315h-50a7.5,7.5,0,0,1-7.5-7.5A97.61,97.61,0,0,1,504.5,210a7.5,7.5,0,0,1,7.5,7.5v50A47.56,47.56,0,0,1,464.5,315Zm-42.16-15H464.5A32.54,32.54,0,0,0,497,267.5V225.34A82.62,82.62,0,0,0,422.34,300Z"/></svg>