<?xml version="1.0" ?><svg style="enable-background:new 0 0 48 48;" version="1.1" viewBox="0 0 48 48" xml:space="preserve" xmlns="http://www.w3.org/2000/svg" xmlns:xlink="http://www.w3.org/1999/xlink"><g id="Icons"><g><path d="M38.53911,34.85189H9.46078c-1.21976,0-2.20851-0.98886-2.20851-2.20851V15.35676    c0-1.21976,0.98886-2.20865,2.20862-2.20865h29.07822c1.21976,0,2.20862,0.98888,2.20862,2.20865v17.28651    C40.74773,33.86303,39.75887,34.85189,38.53911,34.85189z" style="fill:#F9F9F9;"/><path d="M15.52329,17.93294h-3.92923c-0.54759,0-0.99157,0.44398-0.99157,0.99158v3.14432    c0,0.54759,0.44398,0.99147,0.99157,0.99147h3.92923c0.54759,0,0.99158-0.44388,0.99158-0.99147v-3.14432    C16.51487,18.37692,16.07088,17.93294,15.52329,17.93294z" style="fill:#FFC601;"/><path d="    M38.53911,34.85189H9.46078c-1.21976,0-2.20851-0.98886-2.20851-2.20851V15.35676c0-1.21976,0.98886-2.20865,2.20862-2.20865    h29.07822c1.21976,0,2.20862,0.98888,2.20862,2.20865v17.28651C40.74773,33.86303,39.75887,34.85189,38.53911,34.85189z" style="fill:none;stroke:#303030;stroke-width:0.8;stroke-linecap:round;stroke-linejoin:round;stroke-miterlimit:10;"/><path d="    M15.52329,17.93294h-3.92923c-0.54759,0-0.99157,0.44398-0.99157,0.99158v3.14432c0,0.54759,0.44398,0.99147,0.99157,0.99147    h3.92923c0.54759,0,0.99158-0.44388,0.99158-0.99147v-3.14432C16.51487,18.37692,16.07088,17.93294,15.52329,17.93294z" style="fill:none;stroke:#303030;stroke-width:0.5;stroke-linecap:round;stroke-linejoin:round;stroke-miterlimit:10;"/><path d="    M12.71033,17.93392c-0.11219,0.2408-0.24319,0.59608-0.32255,1.03789c-0.07708,0.43007-0.10284,0.94668-0.01163,1.52416    c0.07469,0.46529,0.22428,0.96787,0.49084,1.50079" style="fill:none;stroke:#303030;stroke-width:0.5;stroke-linecap:round;stroke-linejoin:round;stroke-miterlimit:10;"/><line style="fill:none;stroke:#303030;stroke-width:0.5;stroke-linecap:round;stroke-linejoin:round;stroke-miterlimit:10;" x1="10.60249" x2="16.51487" y1="21.99621" y2="21.99621"/><line style="fill:none;stroke:#303030;stroke-width:0.5;stroke-linecap:round;stroke-linejoin:round;stroke-miterlimit:10;" x1="12.38778" x2="10.60173" y1="18.9718" y2="18.9718"/><line style="fill:none;stroke:#303030;stroke-width:0.5;stroke-linecap:round;stroke-linejoin:round;stroke-miterlimit:10;" x1="12.37615" x2="10.60173" y1="20.49596" y2="20.49596"/><path d="    M14.53367,17.93392c0.10991,0.2408,0.2408,0.59608,0.32038,1.03789c0.07708,0.43007,0.10284,0.94668,0.01163,1.52416    c-0.07479,0.46529-0.22449,0.96787-0.49084,1.50079" style="fill:none;stroke:#303030;stroke-width:0.5;stroke-linecap:round;stroke-linejoin:round;stroke-miterlimit:10;"/><line style="fill:none;stroke:#303030;stroke-width:0.5;stroke-linecap:round;stroke-linejoin:round;stroke-miterlimit:10;" x1="16.51378" x2="14.85405" y1="18.9718" y2="18.9718"/><line style="fill:none;stroke:#303030;stroke-width:0.5;stroke-linecap:round;stroke-linejoin:round;stroke-miterlimit:10;" x1="16.51378" x2="14.86569" y1="20.49596" y2="20.49596"/><line style="fill:none;stroke:#303030;stroke-width:0.8;stroke-linecap:round;stroke-linejoin:round;stroke-miterlimit:10;" x1="26.58227" x2="36.97277" y1="17.04331" y2="17.04331"/><line style="fill:none;stroke:#303030;stroke-width:0.8;stroke-linecap:round;stroke-linejoin:round;stroke-miterlimit:10;" x1="10.49454" x2="22.0175" y1="31.29816" y2="31.29816"/><path d="M10.04783,26.95549c0-0.06653,0.01566-0.12632,0.04653-0.1784    c0.03098-0.05196,0.07262-0.09635,0.12469-0.13404c0.05207-0.03761,0.11241-0.06534,0.18046-0.08523    c0.06816-0.01892,0.13959-0.0287,0.21373-0.0287c0.07479,0,0.14568,0.00978,0.21438,0.0287    c0.06805,0.0199,0.12796,0.04762,0.18003,0.08523c0.05262,0.0377,0.0936,0.08208,0.12513,0.13404    c0.03044,0.05207,0.04599,0.11187,0.04599,0.1784v1.16736c0,0.06762-0.01555,0.12741-0.04599,0.17949    c-0.03153,0.05207-0.07251,0.09643-0.12513,0.13404c-0.05207,0.03653-0.11198,0.06531-0.18003,0.08534    c-0.06871,0.01881-0.13959,0.02881-0.21438,0.02881c-0.07414,0-0.14557-0.01-0.21373-0.02881    c-0.06806-0.02003-0.12839-0.04881-0.18046-0.08534c-0.05207-0.03761-0.09371-0.08197-0.12469-0.13404    c-0.03087-0.05207-0.04653-0.11187-0.04653-0.17949V26.95549z M10.42779,28.12286c0,0.04109,0.01718,0.07534,0.05197,0.10197    c0.03446,0.02772,0.07936,0.04096,0.1335,0.04096c0.0549,0,0.09969-0.01324,0.13415-0.04096    c0.03479-0.02664,0.05197-0.06088,0.05197-0.10197v-1.16736c0-0.03992-0.01718-0.07425-0.05197-0.10189    c-0.03446-0.02672-0.07925-0.03998-0.13415-0.03998c-0.05414,0-0.09904,0.01326-0.1335,0.03998    c-0.03479,0.02764-0.05197,0.06197-0.05197,0.10189V28.12286z" style="fill:#303030;"/><path d="M11.43186,26.95549c0-0.06653,0.01555-0.12632,0.04653-0.1784    c0.03109-0.05196,0.07251-0.09635,0.12459-0.13404c0.05207-0.03761,0.11241-0.06534,0.18057-0.08523    c0.06806-0.01892,0.13959-0.0287,0.21373-0.0287c0.07469,0,0.14557,0.00978,0.21438,0.0287    c0.06816,0.0199,0.12796,0.04762,0.17992,0.08523c0.05273,0.0377,0.0936,0.08208,0.12513,0.13404    c0.03055,0.05207,0.04609,0.11187,0.04609,0.1784v1.16736c0,0.06762-0.01555,0.12741-0.04609,0.17949    c-0.03153,0.05207-0.0724,0.09643-0.12513,0.13404c-0.05196,0.03653-0.11176,0.06531-0.17992,0.08534    c-0.06882,0.01881-0.1397,0.02881-0.21438,0.02881c-0.07414,0-0.14568-0.01-0.21373-0.02881    c-0.06816-0.02003-0.1285-0.04881-0.18057-0.08534c-0.05207-0.03761-0.09349-0.08197-0.12459-0.13404    c-0.03098-0.05207-0.04653-0.11187-0.04653-0.17949V26.95549z M11.81182,28.12286c0,0.04109,0.01718,0.07534,0.05207,0.10197    c0.03424,0.02772,0.07914,0.04096,0.13339,0.04096c0.0549,0,0.09969-0.01324,0.13404-0.04096    c0.0349-0.02664,0.05207-0.06088,0.05207-0.10197v-1.16736c0-0.03992-0.01718-0.07425-0.05207-0.10189    c-0.03435-0.02672-0.07914-0.03998-0.13404-0.03998c-0.05425,0-0.09915,0.01326-0.13339,0.03998    c-0.0349,0.02764-0.05207,0.06197-0.05207,0.10189V28.12286z" style="fill:#303030;"/><path d="M12.81579,26.95549c0-0.06653,0.01555-0.12632,0.04653-0.1784    c0.03109-0.05196,0.07262-0.09635,0.12469-0.13404c0.05207-0.03761,0.11241-0.06534,0.18057-0.08523    c0.06805-0.01892,0.13948-0.0287,0.21362-0.0287c0.0749,0,0.14578,0.00978,0.21438,0.0287    c0.06816,0.0199,0.12796,0.04762,0.18003,0.08523c0.05262,0.0377,0.0936,0.08208,0.12524,0.13404    c0.03033,0.05207,0.04588,0.11187,0.04588,0.1784v1.16736c0,0.06762-0.01555,0.12741-0.04588,0.17949    c-0.03164,0.05207-0.07262,0.09643-0.12524,0.13404c-0.05207,0.03653-0.11187,0.06531-0.18003,0.08534    c-0.0686,0.01881-0.13948,0.02881-0.21438,0.02881c-0.07414,0-0.14557-0.01-0.21362-0.02881    c-0.06816-0.02003-0.1285-0.04881-0.18057-0.08534c-0.05207-0.03761-0.0936-0.08197-0.12469-0.13404    c-0.03098-0.05207-0.04653-0.11187-0.04653-0.17949V26.95549z M13.19585,28.12286c0,0.04109,0.01707,0.07534,0.05197,0.10197    c0.03424,0.02772,0.07925,0.04096,0.13339,0.04096c0.0549,0,0.09969-0.01324,0.13415-0.04096    c0.0349-0.02664,0.05197-0.06088,0.05197-0.10197v-1.16736c0-0.03992-0.01707-0.07425-0.05197-0.10189    c-0.03446-0.02672-0.07925-0.03998-0.13415-0.03998c-0.05414,0-0.09915,0.01326-0.13339,0.03998    c-0.0349,0.02764-0.05197,0.06197-0.05197,0.10189V28.12286z" style="fill:#303030;"/><path d="M14.19982,26.95549c0-0.06653,0.01555-0.12632,0.04653-0.1784    c0.03109-0.05196,0.07251-0.09635,0.12459-0.13404c0.05207-0.03761,0.11241-0.06534,0.18057-0.08523    c0.06806-0.01892,0.13959-0.0287,0.21384-0.0287c0.07469,0,0.14557,0.00978,0.21427,0.0287    c0.06816,0.0199,0.12785,0.04762,0.17992,0.08523c0.05262,0.0377,0.0936,0.08208,0.12524,0.13404    c0.03044,0.05207,0.04599,0.11187,0.04599,0.1784v1.16736c0,0.06762-0.01555,0.12741-0.04599,0.17949    c-0.03164,0.05207-0.07262,0.09643-0.12524,0.13404c-0.05207,0.03653-0.11176,0.06531-0.17992,0.08534    c-0.06871,0.01881-0.13959,0.02881-0.21427,0.02881c-0.07425,0-0.14578-0.01-0.21384-0.02881    c-0.06816-0.02003-0.1285-0.04881-0.18057-0.08534c-0.05207-0.03761-0.09349-0.08197-0.12459-0.13404    c-0.03098-0.05207-0.04653-0.11187-0.04653-0.17949V26.95549z M14.57977,28.12286c0,0.04109,0.01718,0.07534,0.05207,0.10197    c0.03435,0.02772,0.07914,0.04096,0.1335,0.04096c0.05479,0,0.09969-0.01324,0.13393-0.04096    c0.0349-0.02664,0.05207-0.06088,0.05207-0.10197v-1.16736c0-0.03992-0.01718-0.07425-0.05207-0.10189    c-0.03424-0.02672-0.07914-0.03998-0.13393-0.03998c-0.05436,0-0.09915,0.01326-0.1335,0.03998    c-0.0349,0.02764-0.05207,0.06197-0.05207,0.10189V28.12286z" style="fill:#303030;"/><path d="M16.96733,26.95549c0-0.06653,0.01544-0.12632,0.04642-0.1784    c0.03098-0.05196,0.07251-0.09635,0.12459-0.13404c0.05207-0.03761,0.11252-0.06534,0.18057-0.08523    c0.06816-0.01892,0.13959-0.0287,0.21384-0.0287c0.07469,0,0.14557,0.00978,0.21427,0.0287    c0.06805,0.0199,0.12796,0.04762,0.18003,0.08523c0.05251,0.0377,0.0936,0.08208,0.12513,0.13404    c0.03055,0.05207,0.04588,0.11187,0.04588,0.1784v1.16736c0,0.06762-0.01533,0.12741-0.04588,0.17949    c-0.03153,0.05207-0.07262,0.09643-0.12513,0.13404c-0.05207,0.03653-0.11197,0.06531-0.18003,0.08534    c-0.06871,0.01881-0.13959,0.02881-0.21427,0.02881c-0.07425,0-0.14568-0.01-0.21384-0.02881    c-0.06805-0.02003-0.1285-0.04881-0.18057-0.08534c-0.05207-0.03761-0.0936-0.08197-0.12459-0.13404    c-0.03098-0.05207-0.04642-0.11187-0.04642-0.17949V26.95549z M17.34718,28.12286c0,0.04109,0.01718,0.07534,0.05207,0.10197    c0.03435,0.02772,0.07925,0.04096,0.1335,0.04096c0.05468,0,0.09969-0.01324,0.13404-0.04096    c0.03479-0.02664,0.05207-0.06088,0.05207-0.10197v-1.16736c0-0.03992-0.01729-0.07425-0.05207-0.10189    c-0.03435-0.02672-0.07936-0.03998-0.13404-0.03998c-0.05425,0-0.09915,0.01326-0.1335,0.03998    c-0.0349,0.02764-0.05207,0.06197-0.05207,0.10189V28.12286z" style="fill:#303030;"/><path d="M18.35125,26.95549c0-0.06653,0.01554-0.12632,0.04653-0.1784    c0.03098-0.05196,0.07262-0.09635,0.12469-0.13404c0.05197-0.03761,0.1123-0.06534,0.18036-0.08523    c0.06816-0.01892,0.1397-0.0287,0.21384-0.0287c0.07479,0,0.14568,0.00978,0.21438,0.0287    c0.06805,0.0199,0.12796,0.04762,0.18003,0.08523c0.05262,0.0377,0.09349,0.08208,0.12502,0.13404    c0.03055,0.05207,0.04609,0.11187,0.04609,0.1784v1.16736c0,0.06762-0.01555,0.12741-0.04609,0.17949    c-0.03153,0.05207-0.0724,0.09643-0.12502,0.13404c-0.05207,0.03653-0.11197,0.06531-0.18003,0.08534    c-0.06871,0.01881-0.13959,0.02881-0.21438,0.02881c-0.07414,0-0.14568-0.01-0.21384-0.02881    c-0.06806-0.02003-0.12839-0.04881-0.18036-0.08534c-0.05207-0.03761-0.09371-0.08197-0.12469-0.13404    c-0.03098-0.05207-0.04653-0.11187-0.04653-0.17949V26.95549z M18.7311,28.12286c0,0.04109,0.01728,0.07534,0.05207,0.10197    c0.03436,0.02772,0.07925,0.04096,0.1335,0.04096c0.0549,0,0.09969-0.01324,0.13404-0.04096    c0.03479-0.02664,0.05207-0.06088,0.05207-0.10197v-1.16736c0-0.03992-0.01729-0.07425-0.05207-0.10189    c-0.03435-0.02672-0.07914-0.03998-0.13404-0.03998c-0.05425,0-0.09915,0.01326-0.1335,0.03998    c-0.03479,0.02764-0.05207,0.06197-0.05207,0.10189V28.12286z" style="fill:#303030;"/><path d="M19.73528,26.95549c0-0.06653,0.01555-0.12632,0.04642-0.1784    c0.03109-0.05196,0.07262-0.09635,0.12469-0.13404c0.05207-0.03761,0.11241-0.06534,0.18057-0.08523    c0.06805-0.01892,0.13948-0.0287,0.21362-0.0287c0.0749,0,0.14578,0.00978,0.21438,0.0287    c0.06816,0.0199,0.12796,0.04762,0.18003,0.08523c0.05262,0.0377,0.0936,0.08208,0.12513,0.13404    c0.03044,0.05207,0.04599,0.11187,0.04599,0.1784v1.16736c0,0.06762-0.01554,0.12741-0.04599,0.17949    c-0.03153,0.05207-0.07251,0.09643-0.12513,0.13404c-0.05207,0.03653-0.11187,0.06531-0.18003,0.08534    c-0.0686,0.01881-0.13948,0.02881-0.21438,0.02881c-0.07414,0-0.14557-0.01-0.21362-0.02881    c-0.06816-0.02003-0.1285-0.04881-0.18057-0.08534c-0.05207-0.03761-0.0936-0.08197-0.12469-0.13404    c-0.03087-0.05207-0.04642-0.11187-0.04642-0.17949V26.95549z M20.11524,28.12286c0,0.04109,0.01707,0.07534,0.05207,0.10197    c0.03424,0.02772,0.07914,0.04096,0.13328,0.04096c0.0549,0,0.0998-0.01324,0.13415-0.04096    c0.0349-0.02664,0.05207-0.06088,0.05207-0.10197v-1.16736c0-0.03992-0.01718-0.07425-0.05207-0.10189    c-0.03435-0.02672-0.07925-0.03998-0.13415-0.03998c-0.05414,0-0.09904,0.01326-0.13328,0.03998    c-0.03501,0.02764-0.05207,0.06197-0.05207,0.10189V28.12286z" style="fill:#303030;"/><path d="M21.1192,26.95549c0-0.06653,0.01555-0.12632,0.04653-0.1784    c0.03109-0.05196,0.07262-0.09635,0.12459-0.13404c0.05207-0.03761,0.11241-0.06534,0.18057-0.08523    c0.06805-0.01892,0.13959-0.0287,0.21373-0.0287c0.0749,0,0.14579,0.00978,0.21438,0.0287    c0.06816,0.0199,0.12795,0.04762,0.18003,0.08523c0.05262,0.0377,0.09349,0.08208,0.12513,0.13404    c0.03044,0.05207,0.04598,0.11187,0.04598,0.1784v1.16736c0,0.06762-0.01554,0.12741-0.04598,0.17949    c-0.03164,0.05207-0.07251,0.09643-0.12513,0.13404c-0.05207,0.03653-0.11187,0.06531-0.18003,0.08534    c-0.0686,0.01881-0.13948,0.02881-0.21438,0.02881c-0.07414,0-0.14568-0.01-0.21373-0.02881    c-0.06816-0.02003-0.1285-0.04881-0.18057-0.08534c-0.05197-0.03761-0.09349-0.08197-0.12459-0.13404    c-0.03098-0.05207-0.04653-0.11187-0.04653-0.17949V26.95549z M21.49916,28.12286c0,0.04109,0.01718,0.07534,0.05207,0.10197    c0.03424,0.02772,0.07914,0.04096,0.13339,0.04096c0.0549,0,0.09969-0.01324,0.13404-0.04096    c0.03501-0.02664,0.05207-0.06088,0.05207-0.10197v-1.16736c0-0.03992-0.01707-0.07425-0.05207-0.10189    c-0.03435-0.02672-0.07914-0.03998-0.13404-0.03998c-0.05425,0-0.09915,0.01326-0.13339,0.03998    c-0.0349,0.02764-0.05207,0.06197-0.05207,0.10189V28.12286z" style="fill:#303030;"/><path d="M23.88672,26.95549c0-0.06653,0.01544-0.12632,0.04653-0.1784    c0.03087-0.05196,0.0724-0.09635,0.12448-0.13404c0.05207-0.03761,0.11252-0.06534,0.18057-0.08523    c0.06816-0.01892,0.13959-0.0287,0.21384-0.0287c0.07469,0,0.14557,0.00978,0.21438,0.0287    c0.06806,0.0199,0.12774,0.04762,0.17981,0.08523c0.05262,0.0377,0.09371,0.08208,0.12524,0.13404    c0.03055,0.05207,0.04599,0.11187,0.04599,0.1784v1.16736c0,0.06762-0.01544,0.12741-0.04599,0.17949    c-0.03153,0.05207-0.07262,0.09643-0.12524,0.13404c-0.05207,0.03653-0.11176,0.06531-0.17981,0.08534    c-0.06882,0.01881-0.1397,0.02881-0.21438,0.02881c-0.07425,0-0.14568-0.01-0.21384-0.02881    c-0.06806-0.02003-0.1285-0.04881-0.18057-0.08534c-0.05207-0.03761-0.0936-0.08197-0.12448-0.13404    c-0.03109-0.05207-0.04653-0.11187-0.04653-0.17949V26.95549z M24.26657,28.12286c0,0.04109,0.01718,0.07534,0.05207,0.10197    c0.03435,0.02772,0.07914,0.04096,0.1335,0.04096c0.05479,0,0.09969-0.01324,0.13404-0.04096    c0.03479-0.02664,0.05207-0.06088,0.05207-0.10197v-1.16736c0-0.03992-0.01728-0.07425-0.05207-0.10189    c-0.03435-0.02672-0.07925-0.03998-0.13404-0.03998c-0.05436,0-0.09915,0.01326-0.1335,0.03998    c-0.0349,0.02764-0.05207,0.06197-0.05207,0.10189V28.12286z" style="fill:#303030;"/><path d="M25.27064,26.95549c0-0.06653,0.01544-0.12632,0.04653-0.1784    c0.03098-0.05196,0.07251-0.09635,0.12459-0.13404c0.05196-0.03761,0.11252-0.06534,0.18057-0.08523    c0.06816-0.01892,0.13959-0.0287,0.21373-0.0287c0.07479,0,0.14568,0.00978,0.21438,0.0287    c0.06805,0.0199,0.12795,0.04762,0.18003,0.08523c0.05251,0.0377,0.09349,0.08208,0.12513,0.13404    c0.03044,0.05207,0.04588,0.11187,0.04588,0.1784v1.16736c0,0.06762-0.01544,0.12741-0.04588,0.17949    c-0.03164,0.05207-0.07262,0.09643-0.12513,0.13404c-0.05207,0.03653-0.11197,0.06531-0.18003,0.08534    c-0.06871,0.01881-0.13959,0.02881-0.21438,0.02881c-0.07414,0-0.14557-0.01-0.21373-0.02881    c-0.06805-0.02003-0.12861-0.04881-0.18057-0.08534c-0.05207-0.03761-0.0936-0.08197-0.12459-0.13404    c-0.03109-0.05207-0.04653-0.11187-0.04653-0.17949V26.95549z M25.65049,28.12286c0,0.04109,0.01729,0.07534,0.05207,0.10197    c0.03435,0.02772,0.07925,0.04096,0.1335,0.04096c0.05479,0,0.09969-0.01324,0.13404-0.04096    c0.0349-0.02664,0.05207-0.06088,0.05207-0.10197v-1.16736c0-0.03992-0.01718-0.07425-0.05207-0.10189    c-0.03435-0.02672-0.07925-0.03998-0.13404-0.03998c-0.05425,0-0.09915,0.01326-0.1335,0.03998    c-0.03479,0.02764-0.05207,0.06197-0.05207,0.10189V28.12286z" style="fill:#303030;"/><path d="M26.65467,26.95549c0-0.06653,0.01554-0.12632,0.04642-0.1784    c0.03098-0.05196,0.07262-0.09635,0.12469-0.13404c0.05207-0.03761,0.11241-0.06534,0.18046-0.08523    c0.06816-0.01892,0.13959-0.0287,0.21384-0.0287c0.07469,0,0.14557,0.00978,0.21427,0.0287    c0.06805,0.0199,0.12795,0.04762,0.18003,0.08523c0.05262,0.0377,0.0936,0.08208,0.12513,0.13404    c0.03055,0.05207,0.04609,0.11187,0.04609,0.1784v1.16736c0,0.06762-0.01555,0.12741-0.04609,0.17949    c-0.03153,0.05207-0.07251,0.09643-0.12513,0.13404c-0.05207,0.03653-0.11197,0.06531-0.18003,0.08534    c-0.06871,0.01881-0.13959,0.02881-0.21427,0.02881c-0.07425,0-0.14568-0.01-0.21384-0.02881    c-0.06805-0.02003-0.12839-0.04881-0.18046-0.08534c-0.05207-0.03761-0.09371-0.08197-0.12469-0.13404    c-0.03087-0.05207-0.04642-0.11187-0.04642-0.17949V26.95549z M27.03452,28.12286c0,0.04109,0.01718,0.07534,0.05207,0.10197    c0.03435,0.02772,0.07925,0.04096,0.1335,0.04096c0.0549,0,0.09969-0.01324,0.13404-0.04096    c0.03479-0.02664,0.05207-0.06088,0.05207-0.10197v-1.16736c0-0.03992-0.01729-0.07425-0.05207-0.10189    c-0.03435-0.02672-0.07914-0.03998-0.13404-0.03998c-0.05425,0-0.09915,0.01326-0.1335,0.03998    c-0.0349,0.02764-0.05207,0.06197-0.05207,0.10189V28.12286z" style="fill:#303030;"/><path d="M28.03859,26.95549c0-0.06653,0.01554-0.12632,0.04653-0.1784    c0.03109-0.05196,0.07262-0.09635,0.12469-0.13404c0.05197-0.03761,0.1123-0.06534,0.18057-0.08523    c0.06795-0.01892,0.13948-0.0287,0.21362-0.0287c0.0749,0,0.14578,0.00978,0.21438,0.0287    c0.06816,0.0199,0.12796,0.04762,0.18003,0.08523c0.05262,0.0377,0.09349,0.08208,0.12502,0.13404    c0.03055,0.05207,0.04609,0.11187,0.04609,0.1784v1.16736c0,0.06762-0.01555,0.12741-0.04609,0.17949    c-0.03153,0.05207-0.0724,0.09643-0.12502,0.13404c-0.05207,0.03653-0.11187,0.06531-0.18003,0.08534    c-0.0686,0.01881-0.13948,0.02881-0.21438,0.02881c-0.07414,0-0.14568-0.01-0.21362-0.02881    c-0.06827-0.02003-0.12861-0.04881-0.18057-0.08534c-0.05207-0.03761-0.0936-0.08197-0.12469-0.13404    c-0.03098-0.05207-0.04653-0.11187-0.04653-0.17949V26.95549z M28.41855,28.12286c0,0.04109,0.01718,0.07534,0.05207,0.10197    c0.03424,0.02772,0.07914,0.04096,0.13339,0.04096c0.0549,0,0.09969-0.01324,0.13404-0.04096    c0.03501-0.02664,0.05207-0.06088,0.05207-0.10197v-1.16736c0-0.03992-0.01707-0.07425-0.05207-0.10189    c-0.03435-0.02672-0.07914-0.03998-0.13404-0.03998c-0.05425,0-0.09915,0.01326-0.13339,0.03998    c-0.0349,0.02764-0.05207,0.06197-0.05207,0.10189V28.12286z" style="fill:#303030;"/><path d="M30.806,26.95549c0-0.06653,0.01555-0.12632,0.04664-0.1784    c0.03098-0.05196,0.07251-0.09635,0.12448-0.13404c0.05207-0.03761,0.11241-0.06534,0.18057-0.08523    c0.06816-0.01892,0.13948-0.0287,0.21384-0.0287c0.07469,0,0.14568,0.00978,0.21428,0.0287    c0.06816,0.0199,0.12795,0.04762,0.17992,0.08523c0.05273,0.0377,0.09371,0.08208,0.12524,0.13404    c0.03044,0.05207,0.04598,0.11187,0.04598,0.1784v1.16736c0,0.06762-0.01554,0.12741-0.04598,0.17949    c-0.03153,0.05207-0.07251,0.09643-0.12524,0.13404c-0.05197,0.03653-0.11176,0.06531-0.17992,0.08534    c-0.0686,0.01881-0.13959,0.02881-0.21428,0.02881c-0.07436,0-0.14568-0.01-0.21384-0.02881    c-0.06816-0.02003-0.1285-0.04881-0.18057-0.08534c-0.05197-0.03761-0.09349-0.08197-0.12448-0.13404    c-0.03109-0.05207-0.04664-0.11187-0.04664-0.17949V26.95549z M31.18595,28.12286c0,0.04109,0.01718,0.07534,0.05207,0.10197    c0.03435,0.02772,0.07914,0.04096,0.1335,0.04096c0.05479,0,0.09969-0.01324,0.13394-0.04096    c0.0349-0.02664,0.05207-0.06088,0.05207-0.10197v-1.16736c0-0.03992-0.01718-0.07425-0.05207-0.10189    c-0.03424-0.02672-0.07914-0.03998-0.13394-0.03998c-0.05436,0-0.09915,0.01326-0.1335,0.03998    c-0.0349,0.02764-0.05207,0.06197-0.05207,0.10189V28.12286z" style="fill:#303030;"/><path d="M32.19003,26.95549c0-0.06653,0.01544-0.12632,0.04653-0.1784    c0.03098-0.05196,0.07251-0.09635,0.12458-0.13404c0.05207-0.03761,0.11252-0.06534,0.18057-0.08523    c0.06816-0.01892,0.13959-0.0287,0.21373-0.0287c0.07479,0,0.14568,0.00978,0.21438,0.0287    c0.06806,0.0199,0.12785,0.04762,0.17992,0.08523c0.05262,0.0377,0.09371,0.08208,0.12524,0.13404    c0.03044,0.05207,0.04588,0.11187,0.04588,0.1784v1.16736c0,0.06762-0.01543,0.12741-0.04588,0.17949    c-0.03153,0.05207-0.07262,0.09643-0.12524,0.13404c-0.05207,0.03653-0.11187,0.06531-0.17992,0.08534    c-0.06871,0.01881-0.13959,0.02881-0.21438,0.02881c-0.07414,0-0.14557-0.01-0.21373-0.02881    c-0.06805-0.02003-0.1285-0.04881-0.18057-0.08534c-0.05207-0.03761-0.0936-0.08197-0.12458-0.13404    c-0.03109-0.05207-0.04653-0.11187-0.04653-0.17949V26.95549z M32.56987,28.12286c0,0.04109,0.01729,0.07534,0.05207,0.10197    c0.03436,0.02772,0.07925,0.04096,0.1335,0.04096c0.05479,0,0.09969-0.01324,0.13416-0.04096    c0.03479-0.02664,0.05196-0.06088,0.05196-0.10197v-1.16736c0-0.03992-0.01718-0.07425-0.05196-0.10189    c-0.03446-0.02672-0.07936-0.03998-0.13416-0.03998c-0.05424,0-0.09914,0.01326-0.1335,0.03998    c-0.03479,0.02764-0.05207,0.06197-0.05207,0.10189V28.12286z" style="fill:#303030;"/><path d="M33.57406,26.95549c0-0.06653,0.01544-0.12632,0.04653-0.1784    c0.03087-0.05196,0.0724-0.09635,0.12448-0.13404c0.05207-0.03761,0.11252-0.06534,0.18057-0.08523    c0.06816-0.01892,0.13959-0.0287,0.21384-0.0287c0.07469,0,0.14557,0.00978,0.21439,0.0287    c0.06805,0.0199,0.12795,0.04762,0.17992,0.08523c0.05262,0.0377,0.0936,0.08208,0.12513,0.13404    c0.03055,0.05207,0.04598,0.11187,0.04598,0.1784v1.16736c0,0.06762-0.01543,0.12741-0.04598,0.17949    c-0.03153,0.05207-0.07251,0.09643-0.12513,0.13404c-0.05197,0.03653-0.11187,0.06531-0.17992,0.08534    c-0.06882,0.01881-0.1397,0.02881-0.21439,0.02881c-0.07425,0-0.14568-0.01-0.21384-0.02881    c-0.06805-0.02003-0.1285-0.04881-0.18057-0.08534c-0.05207-0.03761-0.09361-0.08197-0.12448-0.13404    c-0.03109-0.05207-0.04653-0.11187-0.04653-0.17949V26.95549z M33.9539,28.12286c0,0.04109,0.01729,0.07534,0.05207,0.10197    c0.03436,0.02772,0.07925,0.04096,0.1335,0.04096c0.05479,0,0.09969-0.01324,0.13404-0.04096    c0.03479-0.02664,0.05207-0.06088,0.05207-0.10197v-1.16736c0-0.03992-0.01728-0.07425-0.05207-0.10189    c-0.03435-0.02672-0.07925-0.03998-0.13404-0.03998c-0.05424,0-0.09914,0.01326-0.1335,0.03998    c-0.03479,0.02764-0.05207,0.06197-0.05207,0.10189V28.12286z" style="fill:#303030;"/><path d="M34.95798,26.95549c0-0.06653,0.01554-0.12632,0.04653-0.1784    c0.03099-0.05196,0.07262-0.09635,0.12469-0.13404c0.05207-0.03761,0.11241-0.06534,0.18047-0.08523    c0.06816-0.01892,0.13959-0.0287,0.21373-0.0287c0.07479,0,0.14568,0.00978,0.21438,0.0287    c0.06805,0.0199,0.12796,0.04762,0.18003,0.08523c0.05262,0.0377,0.0936,0.08208,0.12513,0.13404    c0.03044,0.05207,0.04599,0.11187,0.04599,0.1784v1.16736c0,0.06762-0.01555,0.12741-0.04599,0.17949    c-0.03153,0.05207-0.07251,0.09643-0.12513,0.13404c-0.05207,0.03653-0.11198,0.06531-0.18003,0.08534    c-0.06871,0.01881-0.13959,0.02881-0.21438,0.02881c-0.07414,0-0.14557-0.01-0.21373-0.02881    c-0.06805-0.02003-0.12839-0.04881-0.18047-0.08534c-0.05207-0.03761-0.09371-0.08197-0.12469-0.13404    c-0.03098-0.05207-0.04653-0.11187-0.04653-0.17949V26.95549z M35.33783,28.12286c0,0.04109,0.01728,0.07534,0.05207,0.10197    c0.03435,0.02772,0.07936,0.04096,0.1335,0.04096c0.0549,0,0.09969-0.01324,0.13404-0.04096    c0.0349-0.02664,0.05207-0.06088,0.05207-0.10197v-1.16736c0-0.03992-0.01718-0.07425-0.05207-0.10189    c-0.03436-0.02672-0.07914-0.03998-0.13404-0.03998c-0.05414,0-0.09915,0.01326-0.1335,0.03998    c-0.03479,0.02764-0.05207,0.06197-0.05207,0.10189V28.12286z" style="fill:#303030;"/></g><path d="M31.54917,31.658c0.00272,0.01468,0.00631,0.029,0.01815,0.04664   c0.20373-0.51487,0.40746-1.02941,0.61097-1.54329c0.20688,0,0.41148,0,0.62119,0c-0.0112,0.02838-0.02055,0.05338-0.03087,0.07795   c-0.30375,0.7249-0.60771,1.44969-0.91069,2.17492c-0.01163,0.0275-0.02544,0.03805-0.05642,0.03783   c-0.18351-0.00152-0.36712-0.0013-0.55063-0.00022c-0.02772,0.00033-0.03935-0.00652-0.04686-0.03536   c-0.15329-0.59683-0.30918-1.1931-0.46116-1.79026" style="fill:#0052CC;"/><path d="M30.74284,30.6262c-0.02729-0.10708-0.08099-0.18112-0.18329-0.22667   c-0.16829-0.0749-0.34332-0.12709-0.52215-0.16883c-0.00783-0.00185-0.01533-0.00489-0.02305-0.00739   c0-0.00544,0-0.01087,0-0.01642c0.00554-0.0449,0.03392-0.04914,0.07349-0.04892c0.31136,0.00174,0.62271,0.00098,0.93418,0.00109   c0.15459,0,0.26069,0.08621,0.2895,0.23819c0.0798,0.42004,0.1584,0.84046,0.23765,1.26075" style="fill:#FFC601;"/><path d="M34.92722,30.11718c0.06653,0.01101,0.13361,0.01957,0.19949,0.03384   c0.0649,0.01391,0.12861,0.03327,0.19264,0.05096c0.01555,0.00435,0.03022,0.01144,0.04838,0.0184   c-0.03435,0.16014-0.06827,0.31896-0.1023,0.47779c-0.07806-0.02468-0.15274-0.05264-0.2296-0.07142   c-0.1385-0.03348-0.27983-0.04805-0.41931-0.01057c-0.05033,0.01372-0.10121,0.0421-0.14067,0.07656   c-0.06675,0.05838-0.06686,0.1435-0.00239,0.20449c0.04403,0.04153,0.09567,0.07621,0.14785,0.10706   c0.10393,0.06145,0.21319,0.11428,0.3157,0.17799c0.13807,0.08545,0.25287,0.19481,0.29874,0.35767   c0.06686,0.23645-0.0062,0.55194-0.26961,0.74197c-0.15155,0.10947-0.3231,0.16677-0.50563,0.19014   c-0.28722,0.03683-0.56911,0.0087-0.84373-0.08556c-0.01522-0.00522-0.0299-0.01196-0.04935-0.0199   c0.03555-0.16647,0.07066-0.33157,0.10676-0.50041c0.02326,0.01011,0.04327,0.01816,0.06251,0.02729   c0.16992,0.08053,0.34897,0.11915,0.53661,0.11698c0.0861-0.00098,0.17046-0.01435,0.24819-0.05533   c0.14187-0.07501,0.16068-0.22047,0.03566-0.3194c-0.0611-0.04848-0.13144-0.08653-0.20101-0.12285   c-0.116-0.06034-0.23069-0.12157-0.33136-0.20623c-0.28754-0.24148-0.25091-0.57912-0.09523-0.80633   c0.12806-0.18677,0.31625-0.28559,0.53019-0.33973c0.06816-0.01718,0.13905-0.02359,0.20851-0.03522   c0.01033-0.00185,0.02022-0.00533,0.03044-0.00818C34.77491,30.11718,34.85112,30.11718,34.92722,30.11718z" style="fill:#0052CC;"/><path d="M37.355,32.44908c-0.18557,0-0.36354,0-0.54618,0c-0.0174-0.08154-0.03511-0.16315-0.05186-0.24501   c-0.01935-0.09621-0.01892-0.09621-0.11861-0.09621c-0.20786,0-0.41594,0.00054-0.62401-0.00055   c-0.02892-0.00022-0.04305,0.00816-0.05251,0.03629c-0.03131,0.09254-0.0649,0.1844-0.09969,0.27562   c-0.00489,0.01294-0.02229,0.02987-0.03403,0.03011c-0.1971,0.00185-0.39409,0.0013-0.59542,0.0013   c0.005-0.01446,0.00826-0.02576,0.01283-0.03653c0.28983-0.69218,0.57955-1.38436,0.86971-2.07642   c0.04914-0.1173,0.14002-0.17786,0.26635-0.17797c0.16296-0.00022,0.32603-0.00013,0.49508-0.00013   C37.03593,30.92179,37.19508,31.68322,37.355,32.44908z M36.63891,31.64017c-0.05968-0.28646-0.11817-0.56716-0.17677-0.84788   c-0.00304-0.00052-0.00609-0.00084-0.00913-0.00128c-0.10197,0.28157-0.20395,0.56292-0.30755,0.84916   C36.31266,31.64017,36.47105,31.64017,36.63891,31.64017z" style="fill:#0052CC;"/><path d="M32.56651,32.45117c0.16438-0.76752,0.32734-1.52905,0.49019-2.28983c0.19829,0,0.39246,0,0.5914,0   c-0.01576,0.07566-0.03077,0.14839-0.04609,0.2211c-0.14361,0.67166-0.28766,1.34307-0.42986,2.01514   c-0.00902,0.04294-0.02435,0.05555-0.06827,0.05468c-0.16166-0.00293-0.32353-0.00109-0.4854-0.00109   C32.60358,32.45117,32.5889,32.45117,32.56651,32.45117z" style="fill:#0052CC;"/></g></svg>